<?xml version="1.0" encoding="UTF-8"?>
<svg viewBox="0 0 2048 2048" width="2048" height="2048" xmlns="http://www.w3.org/2000/svg">
<g transform="translate(0 476.5)">

<path transform="translate(573,108)" d="m0 0h42l23 3 30 7 19 6 31 12 29 14 18 10 15 9 15 10 23 16 21 16 14 11 10 9 11 9 13 12 8 7 17 16 21 21 7 8 7 7 7 8 8 8 7 8 12 13 18 22 11 13 11 14 6 7h2l6-10 8-10 9-11 7-8 8-10 10-11 7-8 9-11 16-17 7-7 7-8 29-29 8-7 16-15 11-9 13-11 14-11 18-14 14-10 33-22 22-12 14-8 22-10 34-13 30-8 20-4 16-2h47l24 4 21 6 19 7 20 10 18 12 16 13 12 11 9 9 9 11 12 15 13 20 10 18 13 27 10 26 10 32 6 24 8 44 4 27 3 36 1 21v78l-2 38-4 36-10 60-6 27-10 39-12 36-6 16-10 24-14 30-13 23-14 22-12 17-8 10-13 16-13 14-8 7-14 12-14 10-10 7-13 8-14 7-24 10-26 7-23 4-10 1h-32l-20-3-34-7-15-5-21-8-15-6-24-12-13-8-11-6-8-6-16-10-15-11-12-9-10-8-13-11-12-11-8-7-16-15-29-29-14-10-11-10-11-9-11-10-8-7-10-9-3-3-4 2-7 7-8 7-11 10-8 7-12 11-13 11-8 7-16 16-8 7-12 12-8 7-15 14-11 9-16 13-18 13-13 9-20 13-17 10-16 9-21 10-39 14-30 7-23 4-20 2h-16l-20-2-27-6-17-5-20-9-11-5-14-8-12-8-17-13-10-9-8-7-18-18-9-11-13-17-16-24-13-21-17-34-7-16-6-15-11-29-14-47-13-59-5-35-6-54-3-34-1-28v-42l2-33 7-53 6-36 9-36 6-20 13-34 14-29 13-23 11-15 8-11 13-15 11-12 14-12 13-11 15-9 21-11 19-7 22-6 17-3zm-37 265-8 54-4 34-6 83-2 41v69l3 45 5 49 4 22 11 42 11 28 8 17 7 10 6 1 25-5 15-4 25-11 10-4 11-7 16-10 17-12 13-11 11-9 17-16 7-7 7-8 15-16 10-13 14-17 14-19 14-17 14-18 7-7 9-13 4-3-2-4-10-9-9-10-14-14-8-7-21-21-8-7-31-31-8-7-15-15-8-7-10-10-8-7-14-12-11-10-8-7-15-13-14-12-14-11-15-12-19-13-18-12-27-16zm979 1-23 13-30 20-19 14-14 11-15 13-11 9-11 10-11 9-13 12-11 9-7 7-8 7-9 9-8 7-13 13-8 7-37 37-8 7-13 13-8 7-28 28 1 7 5 8 11 13 13 16 7 9 14 17 9 12 9 11 11 14 11 13 7 8 14 15 11 11 8 7 13 11 17 13 18 12 18 11 29 13 16 5 26 5h7l8-10 14-30 13-42 5-26 6-43 4-36 1-22v-82l-2-43-14-152-1-7z" fill="#2A4E93"/>
<path transform="translate(1437,108)" d="m0 0h47l24 4 21 6 19 7 20 10 18 12 16 13 12 11 9 9 9 11 12 15 13 20 10 18 13 27 10 26 10 32 6 24 8 44 4 27 3 36 1 21v78l-2 38-4 36-10 60-6 27-10 39-10 31-2-1-6 4-12 11-13 12-16 12-26 17-19 10-24 9-23 5-16 2h-39l-1-3-2-1 5-2 7-10 13-28 13-42 5-26 6-43 4-36 1-22v-82l-2-43-14-152v-7l-8 3-22 13-27 18-19 14-14 11-15 13-11 9-11 10-11 9-13 12-11 9-7 7-8 7-9 9-8 7-13 13-8 7-37 37-8 7-13 13-8 7-27 27-1 3-4-2-7-7-7-9-14-17-7-9-13-16-13-17-12-15-12-16-10-13-11-14-14-18-13-16-12-16-16-21-7-10-8-13-2-5 7-11 8-10 9-11 7-8 8-10 10-11 7-8 9-11 16-17 7-7 7-8 29-29 8-7 16-15 11-9 13-11 14-11 18-14 14-10 33-22 22-12 14-8 22-10 34-13 30-8 20-4z" fill="#C4382F"/>
<path transform="translate(466,355)" d="m0 0h17l19 4 16 6 11 6 7 4-2 18-7 49-3 31-5 71-2 41v69l3 45 5 49 4 22 11 42 11 28 8 17 6 8v2l10-1 30-6 13-5 18-8 10-4 11-7 16-10 17-12 13-11 11-9 17-16 16-17 12-13 10-13 14-17 14-19 14-17 14-18 7-7 9-13 4-2 12 8 14 12 7 7 2 1v2h2l7 8 26 24 10 10 8 7 17 16 22 22 8 7 15 14 11 9 15 15 2 5 2 1-9 9-8 7-11 10-8 7-12 11-13 11-8 7-16 16-8 7-12 12-8 7-15 14-11 9-16 13-18 13-13 9-20 13-17 10-16 9-21 10-39 14-30 7-23 4-20 2h-16l-20-2-27-6-17-5-20-9-11-5-14-8-12-8-17-13-10-9-8-7-18-18-9-11-13-17-16-24-13-21-17-34-7-16-6-15-11-29-14-47-13-59-5-35-6-54-3-34-1-28v-42h1l1 18 4-5 8-16 18-37 14-24 10-15 11-14 14-14 16-11 12-6 19-5z" fill="#C4382F"/>
<path transform="translate(1567,356)" d="m0 0h28l20 5 10 4 11 7 9 7 5 4 7 8 9 10 7 10 10 16 6 11 8 15 22 46 2 1v-19h1v78l-2 38-4 36-10 60-6 27-10 39-10 31-2-1-6 4-12 11-13 12-16 12-26 17-19 10-24 9-23 5-16 2h-39l-1-3-2-1 5-2 7-10 13-28 13-42 5-26 6-43 4-36 1-22v-82l-2-43-14-152v-7l-2-1 19-9 23-7z" fill="#E7A45C"/>
<path transform="translate(466,355)" d="m0 0h17l19 4 16 6 11 6 7 4-2 18-7 49-3 31-5 71-2 41v69l3 45 5 49 4 22 11 42 11 28 8 17 6 9-6 2-18 1-15-1-20-4-21-5-12-4-30-15-5-3v-2l-5-1-13-9-10-8-7-6-3-3v-2h-2v-2l-4-2-13-9v-2h-2v-2l-6 1-8-26-9-31-12-55-5-35-6-54-3-34-1-28v-42h1l1 18 4-5 8-16 18-37 14-24 10-15 11-14 14-14 16-11 12-6 19-5z" fill="#E7A45C"/>
<path transform="translate(843,642)" d="m0 0 5 2 13 9 15 14 4 3v2h2l7 8 26 24 10 10 8 7 17 16 22 22 8 7 15 14 11 9 15 15 2 5 2 1-9 9-8 7-11 10-8 7-12 11-6 5h-5l3-4 2-5 5-5 2-4 3-3v-3l-4 1-4-6-4-2 2-14-1-7-4-11v-2l-5-2-1-4-4-2-4-8-8-7-6-4-2-6-7-4-4-4-10-6-2-4h-2l-6-10h-2l-5-8-6-3-8-11-10-11-6-9-13-11-5-4v-2l-6 1-8-6-10-2 2-6 7-8 6-9z" fill="#B73633"/>
<path transform="translate(1681,781)" d="m0 0 1 3-2 6-2-1-6 4-12 11-13 12-16 12-26 17-19 10-24 9-23 5-16 2h-39l-1-3-2-1 8-3h10l14-3 6-2 16-3 9-4 2-2-1-2 3-3v-3l3-3 3-5 3-9 5-3v2l4-3 2-4 6-3 1-2h3l1-5 4-1v4l2-2 9-1 8 3 2 2 5 2 1 1h7l12-6 11-8 4-1 9-7 5-3 9-4h8z" fill="#DA844B"/>
<path transform="translate(1032,399)" d="m0 0 3 1 5 12 4 6 9 11 8 7 13 12 1 4h2l8 11 4 5 5 9 6 9 11 14 11 12 4 4 13 17 10 11 10 13 10 12 13 19 6 9 3 5 6 8 5 1 2-4 2 1v-3l8 1 1-2 5-1 1-4 1 2 12-6 13-6 7-3h4v4l-12 12-8 7-27 27-1 3-4-2-7-7-7-9-14-17-7-9-13-16-13-17-12-15-12-16-10-13-11-14-14-18-13-16-12-16-16-21-7-10-8-13-2-5z" fill="#B73633"/>
<path transform="translate(372,784)" d="m0 0h7l12 6v2l4 1 5 6 3 2v2l4 2 4 3 11 5 14 5 1 3 16 8 10 1h7l9 3 5 3 6 1 7 4h17l6-1-6-3v-2l7 1 9 1 2 2 4 2 5 6 10 7 5 2 7 6 2 4-6 2-18 1-15-1-20-4-21-5-12-4-30-15-5-3v-2l-5-1-13-9-10-8-7-6-3-3v-2h-2v-2l-4-2-13-9v-2h-2v-2l-6 1z" fill="#DA844B"/>
<path transform="translate(1681,781)" d="m0 0 1 3-2 6-2-1-6 4-12 11-13 12-16 12-26 17-19 10-24 9-23 5-16 2h-39l-1-3-2-1 9-3 4 2 19 2 19-1 16-3 19-5 20-9 22-12 17-11 19-14 12-11 11-10 11-9z" fill="#C4382F"/>
<path transform="translate(1610,361)" d="m0 0 7 1 9 4 10 6 9 7 5 4 7 8 9 10 7 10 10 16 6 11 8 15 22 46 2 1v-19h1v25l-4-2-9-16-11-24-11-23-8-13-7-12-8-12-11-13-13-13-19-12-11-4z" fill="#DA844B"/>
<path transform="translate(466,355)" d="m0 0h17l19 4 16 6 11 6 4 4-5-2-16-8-17-5-7-1h-24l-18 2-13 5-13 8-10 8-16 16-12 16-6 9-1-2 10-15 11-14 14-14 16-11 12-6 19-5z" fill="#C4382F"/>
<path transform="translate(1567,356)" d="m0 0h28l4 2h-25l-19 3-15 5-16 8-5 1-2-2 19-9 23-7z" fill="#DA844B"/>
<path transform="translate(351,466)" d="m0 0 1 3-10 21-8 16-4 5-1-3v-23h1l1 18 4-5 8-16z" fill="#C4392F"/>
<path transform="translate(1713,421)" d="m0 0h4l1 3v18l-4-2-3-7v-10z" fill="#B93933"/>
<path transform="translate(1315,528)" d="m0 0h4l-1 4-8 7h-3l1-4z" fill="#BF4437"/>

</g>
</svg>
